<svg width="15" height="15" viewBox="0 0 15 15" fill="none" xmlns="http://www.w3.org/2000/svg">
<path d="M1.52794 13.472C1.6208 13.5649 1.73107 13.6387 1.85244 13.689C1.97381 13.7393 2.10389 13.7651 2.23527 13.7651C2.36665 13.7651 2.49673 13.7393 2.6181 13.689C2.73947 13.6387 2.84974 13.5649 2.9426 13.472L14.2759 2.13868C14.3715 2.04648 14.4477 1.93617 14.5002 1.81419C14.5527 1.69221 14.5803 1.56101 14.5815 1.42823C14.5827 1.29545 14.5575 1.16376 14.5073 1.04084C14.457 0.917923 14.3828 0.806237 14.289 0.7123C14.1952 0.618363 14.0835 0.544057 13.9607 0.493718C13.8378 0.443379 13.7061 0.418016 13.5733 0.419107C13.4406 0.420198 13.3093 0.447721 13.1873 0.500071C13.0653 0.552422 12.9549 0.628551 12.8626 0.724016L1.52927 12.0574C1.342 12.2449 1.23682 12.499 1.23682 12.764C1.23682 13.029 1.342 13.2832 1.52927 13.4707L1.52794 13.472Z" fill="#C3C3C3"/>
<path d="M13.5693 14.4307C13.8346 14.4307 14.0889 14.3253 14.2764 14.1378C14.464 13.9502 14.5693 13.6959 14.5693 13.4307V1.43066C14.5693 1.16545 14.464 0.911093 14.2764 0.723557C14.0889 0.536019 13.8346 0.430664 13.5693 0.430664H1.56934C1.30412 0.430664 1.04977 0.536019 0.862229 0.723557C0.674693 0.911093 0.569336 1.16545 0.569336 1.43066C0.569336 1.69588 0.674693 1.95023 0.862229 2.13777C1.04977 2.32531 1.30412 2.43066 1.56934 2.43066H12.5693V13.4307C12.5693 13.6959 12.6747 13.9502 12.8622 14.1378C13.0498 14.3253 13.3041 14.4307 13.5693 14.4307Z" fill="#C3C3C3"/>
</svg>
