<svg width="192" height="64" viewBox="0 0 192 64" fill="none" xmlns="http://www.w3.org/2000/svg">
<g filter="url(#filter0_i_752_436)">
<rect x="0.390244" y="0.390244" width="191.22" height="63.2195" rx="31.6098" fill="black" stroke="#FF6A00" stroke-width="0.780488"/>
<path d="M45.902 13.2683H146.071L146.979 13.4818L147.779 13.802L148.473 14.2289L149.167 14.8159L149.754 15.5631L150.127 16.2035L150.394 16.8972L150.554 17.6444L150.607 18.1247V45.8754L150.447 46.8893L150.127 47.7432L149.754 48.437L149.273 49.024L148.74 49.5577L147.939 50.0913L147.245 50.4115L146.231 50.6784L145.538 50.7317H46.489L45.7419 50.6784L44.888 50.4649L44.1943 50.1981L43.4471 49.7178L42.9135 49.2375L42.4865 48.8105L42.113 48.2769L41.686 47.423L41.4726 46.7292L41.3658 46.1956V17.8045L41.6327 16.6838L42.0596 15.7765L42.4865 15.1895L43.0736 14.5491L43.714 14.0688L44.5145 13.6419L45.3683 13.375L45.902 13.2683Z" fill="black"/>
<path d="M64.7405 18.8184H64.7938V33.6544H43.3938V18.8718L43.6072 18.9785L48.9439 24.3152L49.3175 23.995L50.2781 23.0344L50.705 22.6608L54.0138 19.3521L54.2272 19.2987L59.1903 24.2618L59.4038 24.1551L64.7405 18.8184Z" fill="white"/>
<path d="M114.318 18.605H115.652L116.773 18.7651L117.947 19.0853L118.801 19.4588L119.655 19.9391L120.349 20.4728L120.989 21.0598L121.469 21.6469L122.003 22.4474L122.483 23.4613L122.803 24.5287L122.964 25.4359V27.197L122.75 28.2643L122.43 29.2249L121.843 30.3456L121.309 31.0928L120.669 31.7866L120.135 32.2668L119.174 32.9072L118.321 33.3342L117.2 33.7078L116.293 33.8679L115.759 33.9212H114.265L112.984 33.7611L111.97 33.4943L110.956 33.0674L110.156 32.587L109.622 32.1601L108.981 31.5731L108.394 30.8793L107.861 30.0788L107.434 29.2783L107.114 28.4244L106.9 27.4638L106.847 26.9835V25.8628L107.007 24.7955L107.327 23.6748L107.807 22.5541L108.394 21.5935L108.875 21.0598L109.248 20.6329L109.835 20.1526L110.582 19.6723L111.436 19.2454L112.45 18.9252L113.784 18.6583L114.318 18.605Z" fill="white"/>
<path d="M124.618 19.0319H128.354L128.941 19.6723L129.474 20.3661L131.822 23.3546L132.249 23.8883L132.996 24.8489L133.583 25.596L134.224 26.3965L134.758 27.0903L135.238 27.6773L135.345 27.7307L135.291 27.1436V20.4194L135.345 19.0853H139.027V33.5476H135.932L135.345 33.4943L134.971 33.1207L134.277 32.2135L133.583 31.3596L133.05 30.6658L132.409 29.8654L131.876 29.1716L131.235 28.3711L130.702 27.6773L130.008 26.8234L129.528 26.183L128.941 25.4359L128.46 24.8489L128.407 33.4409L128.354 33.4943H124.618V19.0319Z" fill="white"/>
<path d="M84.5395 19.0319H90.9969L91.9575 19.192L92.5979 19.4055L93.3984 19.8324L94.0388 20.4194L94.5191 21.0598L94.946 21.9137L95.1595 22.7676V24.1551L94.946 24.9556L94.5724 25.7027L93.9854 26.4499L93.345 26.9835L92.4378 27.4638L92.0642 27.5706L92.3844 28.0509L93.1315 29.0115L93.6652 29.7052L94.3056 30.5591L95.0527 31.5197L95.8532 32.587L96.3869 33.2808L96.4936 33.5476H91.8507L91.4772 33.0674L90.9969 32.2668L90.143 30.9327L89.2358 29.5451L88.6487 28.6379L88.3285 28.1576L88.2752 33.4943H84.5395V19.0319Z" fill="white"/>
<path d="M78.2956 19.0319H82.9919L82.7784 19.3521L82.0846 20.1526L81.6577 20.6863L81.0173 21.4334L80.537 22.0204L79.8966 22.7676L79.3096 23.5147L78.8293 24.0484L78.349 24.6354L77.7619 25.3292L77.335 25.8628L77.5485 26.183L78.1889 26.9302L78.6692 27.5172L79.3629 28.3711L79.95 29.0648L80.3769 29.5985L80.8572 30.1855L81.4442 30.8793L81.8712 31.413L82.3515 32L83.0986 32.9072L83.5255 33.4409V33.5476H79.4163L78.6692 33.4943L78.1889 32.9606L77.6552 32.2668L76.9614 31.413L76.4811 30.7726L75.8407 29.9721L75.3071 29.2783L74.72 28.5312L73.9729 27.5706L73.8662 27.3571H73.7594V33.4943H70.0238V19.0853H73.7594L73.8128 24.8489L74.5066 23.995L75.3071 22.9277L75.9475 22.1272L76.5879 21.2733L77.335 20.3127L78.2956 19.0319Z" fill="white"/>
<path d="M71.3046 35.8958L73.0657 35.9492L73.4926 36.3761L74.0263 37.0699L74.6133 37.817L75.2537 38.6175L75.7874 39.3113L76.4811 40.1651L76.9614 40.8055L77.6018 41.606L78.2956 42.5133L78.6692 42.9402L78.7225 35.9492H81.7644V47.6898L80.8572 47.7432H79.8966L78.7225 47.6898L78.1355 46.9961L76.9614 45.5018L76.2143 44.5412L75.5205 43.6873L74.8801 42.8335L74.1864 41.9796L73.6527 41.2858L73.1724 40.6988L73.119 47.6898H70.0771L70.0238 47.6365V35.9492L71.3046 35.8958Z" fill="white"/>
<path d="M56.4153 35.9492H59.0302L59.4572 36.0025L59.9375 36.5362L60.6312 37.4434L61.325 38.2973L61.8587 38.9911L62.5524 39.8449L63.1928 40.6988L63.8866 41.5527L64.4203 42.2464L65.0073 42.9936L65.0607 36.0025H68.1026V47.7432H65.114L64.5804 47.1562L64.0467 46.4624L63.3529 45.6085L62.7125 44.7547L61.9654 43.8474L61.4851 43.207L60.8981 42.4599L60.2577 41.6594L59.724 40.9656L59.4572 40.6988V47.6898H56.3619V36.0025L56.4153 35.9492Z" fill="white"/>
<path d="M95.6931 35.9492H98.2547L98.735 36.0025L99.3754 36.7497L99.9091 37.4434L101.083 38.9377L101.724 39.7382L102.417 40.6454L103.164 41.5527L103.645 42.1931L104.285 42.9936L104.339 36.0025H107.38V47.7432H104.392L104.018 47.3696L103.325 46.4624L102.631 45.6085L101.937 44.7013L101.243 43.8474L100.549 42.9402L99.8557 42.0863L99.3221 41.3926L98.8418 40.8055V40.6988H98.735V47.6898H95.6398V36.0025L95.6931 35.9492Z" fill="white"/>
<path d="M97.4009 19.0319H105.513L105.566 19.0853V22.2339H101.19V24.6354H105.299L105.353 24.6888V27.784L101.243 27.8374L101.19 30.2923H105.566V33.4943H97.4009V19.0319Z" fill="white"/>
<path d="M87.0477 35.8958H90.3565L90.5699 36.3227L91.5839 38.9911L92.5979 41.606L93.6118 44.2744L94.8926 47.6898V47.7432H91.6373L91.3704 47.1028L90.8901 45.822V45.7153L86.5674 45.7686L85.8737 47.6365L85.8203 47.7432H82.6183L82.6717 47.3696L83.7924 44.3811L85.1799 40.6988L85.927 38.7242L86.7275 36.5896L86.9944 35.9492L87.0477 35.8958Z" fill="white"/>
<path d="M127.446 35.9492H130.808L131.075 36.5896L131.982 38.9377L132.783 41.019L134.491 45.5018L135.291 47.6365V47.7432H132.036L131.609 46.6759L131.342 45.9287V45.7686H126.966L126.806 46.3023L126.272 47.7432H123.017L123.177 47.2095L124.351 44.0609L125.739 40.3786L126.592 38.1372L127.34 36.1626L127.446 35.9492Z" fill="white"/>
<path d="M114.692 35.5756H115.599L116.613 35.7357L117.413 36.0025L117.894 36.216V39.7916L117.413 39.4714L116.826 39.0978L116.079 38.7776L115.599 38.6709H114.638L113.945 38.8843L113.304 39.2579L112.824 39.7382L112.504 40.2719L112.237 40.9656L112.183 41.2325V42.4065L112.397 43.1537L112.717 43.7407L113.197 44.2744L113.624 44.5946L114.158 44.8614L114.585 44.9681H115.546L116.346 44.7547L117.2 44.3277L117.787 43.9542L117.894 43.9008V47.4764L117.36 47.6898L116.026 48.01L115.599 48.0634H114.371L113.464 47.9033L112.664 47.6365L111.863 47.2095L111.223 46.7292L110.209 45.7153L109.729 45.0215L109.248 44.1143L108.981 43.3138L108.821 42.1931V41.606L108.981 40.4853L109.248 39.6315L109.622 38.7776L109.995 38.1906L110.476 37.6035L111.009 37.0699L111.757 36.5362L112.664 36.0559L113.464 35.7891L114.211 35.629L114.692 35.5756Z" fill="white"/>
<path d="M43.7673 19.7257L44.1409 20.0459L52.8397 28.7446L53.2666 29.1182L53.6936 29.5451L54.0138 29.9187L54.1738 29.9721L54.2806 29.7586L54.5474 29.5451L64.3669 19.7257H64.4203V32.9606L64.0467 32.6404L63.5664 32.1601L63.1395 31.7866L59.5639 28.211L59.8841 27.8374L60.0976 27.5706L60.311 27.6239L60.738 28.0509L61.1649 28.4244L61.9654 29.2249L62.3923 29.5985L63.1928 30.399L63.513 30.6658V21.8603L54.1205 31.2529L53.7469 30.9327L44.7279 21.9137L44.6746 30.7192L45.1015 30.3456L47.9833 27.4638L48.3569 27.784L48.6771 28.1576L43.8207 33.014H43.7673V19.7257Z" fill="black"/>
<path d="M43.5005 35.9492H50.1713V38.5108H46.5958V40.4853H49.8511V43.1003H46.5424V47.6898H43.5005V35.9492Z" fill="white"/>
<path d="M114.371 22.2873H115.439L116.346 22.5007L117.2 22.9277L117.734 23.3546L118.161 23.7815L118.641 24.5287L118.908 25.2224L119.014 25.7561V26.7701L118.801 27.6239L118.374 28.4778L117.787 29.1182L117.307 29.5451L116.666 29.9187L115.866 30.1855L115.599 30.2389H114.265L113.464 30.0254L112.717 29.6519L112.237 29.2783L111.65 28.6913L111.223 27.9975L110.956 27.197L110.849 26.5032V26.0229L111.009 25.1157L111.276 24.4753L111.596 23.9416L112.077 23.408L112.557 22.981L113.358 22.5541L114.051 22.3406L114.371 22.2873Z" fill="black"/>
<path d="M136.145 35.9492H139.134V45.1282H143.083V47.6898H136.092V36.0025L136.145 35.9492Z" fill="white"/>
<path d="M51.6122 35.9492H54.6542V47.7432H51.6122V35.9492Z" fill="white"/>
<path d="M63.1395 22.7142H63.1928V29.8654L62.8193 29.5451L61.9654 28.7446L61.4317 28.211L61.0048 27.8374L60.4711 27.3037L60.7913 26.9302L61.0582 26.6633L61.2716 26.7701L62.1255 27.6773L62.339 27.8908V24.9556L61.5385 25.7561L61.1115 26.1297L58.123 29.1182L57.6961 29.4918L54.7609 32.427L54.334 32.8005L54.1738 32.9606L53.9604 32.8539L51.3454 30.2389L50.9185 29.8654L46.9693 25.9162L46.5424 25.5426L45.9554 24.9556L45.902 27.9441L47.0761 26.7701L47.1294 26.6633L47.3429 26.7701L47.7165 27.1436L47.6097 27.3571L45.1015 29.8654H45.0481V22.7676L45.2616 22.8743L45.6885 23.3012L46.0621 23.7282L46.5958 24.2618L47.0227 24.6354L47.7698 25.4359L48.1434 25.8095L48.5703 26.183L48.9439 26.5566L49.3175 26.9835L49.8511 27.4638L54.0671 31.6798L54.2806 31.5731L63.1395 22.7142Z" fill="black"/>
<path d="M119.281 35.9492H122.27V47.6898H119.281V35.9492Z" fill="white"/>
<path d="M54.1205 19.779L54.4941 20.0992L58.9769 24.582L58.6567 24.9556L58.3365 25.2224L56.8422 23.7282L56.4153 23.3546L54.1738 21.1132L53.9604 21.2199L51.3454 23.8349L50.9185 24.2085L49.9045 25.2224L49.691 25.1157L49.2641 24.6888L49.3708 24.4753L51.3454 22.5007L51.7723 22.1272L54.1205 19.779Z" fill="black"/>
<path d="M45.1015 32.1601H52.7863L53.8537 33.2275V33.2808H44.0875L44.1409 33.1207L44.5145 32.8005L44.888 32.3736L45.1015 32.1601Z" fill="black"/>
<path d="M55.4546 32.1601H63.0861L64.1534 33.2275V33.2808H54.3873L54.7075 32.9072L55.4546 32.1601Z" fill="black"/>
<path d="M88.5954 21.9137L89.556 21.9671L90.1964 22.1272L90.6767 22.394L91.0502 22.8209L91.2103 23.1945L91.2637 23.8883L91.157 24.3686L90.8368 24.9022L90.3565 25.2224L89.7161 25.4359L89.2891 25.4893H88.3285L88.2752 25.4359V21.9671L88.5954 21.9137Z" fill="black"/>
<path d="M54.0671 21.5935L54.2806 21.7002L55.6681 23.0878L56.095 23.4613L58.0696 25.4359L57.9629 25.6494L57.536 26.0763L57.3225 25.9696L54.1738 22.8209L53.9604 22.9277L51.3988 25.4893L50.9718 25.8628L50.7584 26.0763L50.5449 25.9696L50.118 25.5426V25.4359L50.5449 25.0623L51.8257 23.7815L52.2526 23.408L52.5195 23.0878L52.9464 22.7142L54.0671 21.5935Z" fill="black"/>
<path d="M145.538 16.2568H146.285L146.765 17.4843V17.6444H146.872L147.032 17.1107L147.405 16.2568H148.153L148.526 18.7117V18.9785H147.832L147.672 17.9112L147.619 17.4843L146.979 18.9785L146.872 19.0319L146.658 18.9785L146.071 17.5376L145.911 18.3915L145.804 18.9785L145.698 19.0319L145.111 18.9785L145.164 18.3915L145.538 16.2568Z" fill="white"/>
<path d="M46.4357 30.8793H51.5055L52.3594 31.7332V31.7866H45.5818L45.6352 31.6264L46.0621 31.2529L46.4357 30.8793Z" fill="black"/>
<path d="M56.7888 30.8793H61.7519L62.1789 31.2529L62.6592 31.7332V31.7866H55.8816L56.7888 30.8793Z" fill="black"/>
<path d="M88.6487 39.5247H88.7555L89.6627 42.0863L90.0363 43.1537V43.3138H87.3679L87.528 42.7801L88.542 39.8449L88.6487 39.5247Z" fill="black"/>
<path d="M129.101 39.5247L129.207 39.5781L130.275 42.6734L130.488 43.3138H127.82L127.873 43.0469L128.941 39.9517L129.101 39.5247Z" fill="black"/>
<path d="M48.8905 28.4244L49.104 28.5312L49.8511 29.2783L50.2781 29.6519L51.0786 30.4524V30.5591H46.8626L46.9693 30.3456L48.8905 28.4244Z" fill="black"/>
<path d="M59.2437 28.4778L59.4572 28.5845L60.0976 29.2249L60.5245 29.5985L61.3784 30.4524V30.5591H57.2158L57.3225 30.3456L59.0836 28.5845L59.2437 28.4778Z" fill="black"/>
<path d="M54.2806 23.4613L54.6542 23.7815L55.1878 24.3152V28.4244L54.334 29.2783H54.2806V23.4613Z" fill="black"/>
<path d="M53.8537 23.4613H53.907V29.2783L53.5334 28.9581L52.9998 28.4244V24.3152L53.8537 23.4613Z" fill="black"/>
<path d="M55.5614 24.7421L55.935 25.0623L57.109 26.2364L57.2158 26.2898L57.109 26.5032L55.6148 27.9975H55.5614V24.7421Z" fill="black"/>
<path d="M52.5728 24.7421H52.6262V27.9975L52.2526 27.6773L50.9718 26.3965L51.292 26.0229L52.5728 24.7421Z" fill="black"/>
<path d="M143.083 16.2568H145.004V16.8439H144.417V18.9785L144.31 19.0319L143.67 18.9785V16.8439H143.083V16.2568Z" fill="white"/>
<path d="M46.2756 25.8095H46.3823V25.9162L46.5958 26.0229L46.916 26.3431L46.8092 26.5566L46.3289 27.0369H46.2756V25.8095Z" fill="black"/>
<path d="M61.9654 25.7561H62.0188V27.0369L61.6452 26.7167L61.3784 26.3431L61.9654 25.7561Z" fill="black"/>
</g>
<defs>
<filter id="filter0_i_752_436" x="0" y="0" width="192" height="67.122" filterUnits="userSpaceOnUse" color-interpolation-filters="sRGB">
<feFlood flood-opacity="0" result="BackgroundImageFix"/>
<feBlend mode="normal" in="SourceGraphic" in2="BackgroundImageFix" result="shape"/>
<feColorMatrix in="SourceAlpha" type="matrix" values="0 0 0 0 0 0 0 0 0 0 0 0 0 0 0 0 0 0 127 0" result="hardAlpha"/>
<feOffset dy="3.12195"/>
<feGaussianBlur stdDeviation="10.3415"/>
<feComposite in2="hardAlpha" operator="arithmetic" k2="-1" k3="1"/>
<feColorMatrix type="matrix" values="0 0 0 0 1 0 0 0 0 0.415 0 0 0 0 0 0 0 0 1 0"/>
<feBlend mode="normal" in2="shape" result="effect1_innerShadow_752_436"/>
</filter>
</defs>
</svg>
