<svg width="96" height="96" viewBox="0 0 96 96" fill="none" xmlns="http://www.w3.org/2000/svg">
<circle cx="48" cy="48.0001" r="38.4" fill="white" fill-opacity="0.1" stroke="url(#paint0_linear_752_750)" stroke-width="0.96"/>
<circle cx="48" cy="48" r="47.52" fill="white" fill-opacity="0.1" stroke="url(#paint1_linear_752_750)" stroke-width="0.96"/>
<circle cx="48" cy="48.0002" r="28.32" fill="url(#paint2_linear_752_750)" fill-opacity="0.5" stroke="url(#paint3_linear_752_750)" stroke-width="0.96"/>
<path fill-rule="evenodd" clip-rule="evenodd" d="M62.6838 37.7603H62.6109L55.3148 45.0563L55.023 45.2022L48.2377 38.4169L47.9458 38.4899L43.4223 43.0134L42.8386 43.5241L41.5253 44.8374L41.0146 45.2752L33.7185 37.9791L33.4267 37.8332V58.0433H62.6838V37.7603ZM60.495 43.0864H60.4221L48.3106 55.1978L48.0188 55.3437L42.2549 49.5798L41.5253 48.9232L41.0146 48.3395L40.5039 47.8288L39.9202 47.3181L39.4095 46.8074L38.388 45.7129L37.8043 45.2022L37.0747 44.4726L36.564 43.8889L35.9803 43.3052L35.6885 43.1593V52.8631H35.7614L39.1906 49.4339L39.3365 49.1421L38.8258 48.6314L38.6398 48.4803L38.461 48.6314L36.8558 50.2365L36.9288 46.1507L37.7314 46.9533L38.315 47.464L43.7141 52.8631L44.2978 53.3738L47.8729 56.9489L48.1647 57.0948L48.3836 56.8759L48.9673 56.3652L52.9801 52.3523L53.5638 51.8416L57.6496 47.7558L58.2332 47.2451L59.3277 46.1507V50.1635L59.0358 49.8717L57.8684 48.6314L57.5766 48.4854L57.2118 48.8502L56.774 49.361L57.5036 50.0906L58.0873 50.6013L58.8169 51.3309L59.9843 52.4253L60.495 52.8631V43.0864ZM33.9374 39.0006L34.4481 39.4383L46.3407 51.3309L46.9244 51.8416L47.5081 52.4253L47.9458 52.936L48.1647 53.009L48.3106 52.7171L48.6754 52.4253L62.1002 39.0006H62.1731V57.0948L61.6624 56.657L61.0057 56.0004L60.4221 55.4896L55.5337 50.6013L55.9715 50.0906L56.2633 49.7258L56.5552 49.7987L57.1388 50.3824L57.7225 50.8931L58.8169 51.9875L59.4006 52.4983L60.495 53.5927L60.9328 53.9575V41.919L48.0917 54.76L47.581 54.3223L35.2507 41.992L35.1777 54.0304L35.7614 53.5197L39.7013 49.5798L40.212 50.0176L40.6498 50.5283L34.0104 57.1677H33.9374V39.0006ZM49.9158 56.0004H60.3491L61.8083 57.4596V57.5325H48.4565L48.8943 57.0218L49.9158 56.0004ZM58.5251 54.2493H51.7398L50.4994 55.4896H59.7654V55.4167L59.1088 54.76L58.5251 54.2493ZM55.096 50.9661L55.3878 51.112L56.2633 51.9875L56.847 52.4983L58.0144 53.6656V53.8116H52.3235L52.4694 53.5197L54.8771 51.112L55.096 50.9661ZM47.7269 57.4596L46.2677 56.0004H35.7614L35.4696 56.2922L34.9589 56.8759L34.4481 57.3137L34.3752 57.5325H47.7269V57.4596ZM37.5854 54.2493H44.5167L45.6841 55.4167V55.4896H36.4181L36.491 55.2708L37.0747 54.76L37.5854 54.2493ZM41.2335 51.0391L40.9416 50.8931L38.315 53.5197L38.1691 53.8116H43.933V53.6656L42.8386 52.5712L42.2549 52.0605L41.2335 51.0391ZM50.0617 45.8589L50.5724 46.2966L52.1775 47.9018L52.3235 47.9747L52.1775 48.2666L50.1346 50.3095H50.0617V45.8589ZM48.8214 44.5456L48.3106 44.1078V52.0605H48.3836L49.551 50.8931V45.2752L48.8214 44.5456ZM47.7269 44.1078H47.7999V52.0605L47.2892 51.6227L46.5596 50.8931V45.2752L47.7269 44.1078ZM46.0489 45.8589H45.9759L44.2248 47.6099L43.7871 48.1206L45.5381 49.8717L46.0489 50.3095V45.8589ZM48.0188 41.5542L48.3106 41.7001L50.2076 43.5971L50.7913 44.1078L53.4908 46.8074L53.3449 47.0992L52.7612 47.6829L52.4694 47.537L48.1647 43.2323L47.8729 43.3782L44.3708 46.8803L43.7871 47.391L43.4952 47.6829L43.2034 47.537L42.6197 46.9533V46.8074L43.2034 46.2966L44.9544 44.5456L45.5381 44.0349L45.9029 43.5971L46.4866 43.0864L48.0188 41.5542ZM48.6025 39.5113L48.0917 39.0735L44.8815 42.2838L44.2978 42.7945L41.5983 45.4941L41.4523 45.7859L42.036 46.3696L42.3279 46.5155L43.7141 45.1293L44.2978 44.6185L47.8729 41.0435L48.1647 40.8976L51.229 43.9619L51.8127 44.4726L53.8556 46.5155L54.2934 46.1507L54.7311 45.64L48.6025 39.5113ZM58.8169 47.2451H58.8899V48.9962L58.3792 48.5584L58.0144 48.0477L58.8169 47.2451ZM37.5125 47.3181H37.3666V48.9962H37.4395L38.2421 48.0477L37.8043 47.6099L37.6607 47.464L37.5125 47.3181Z" fill="white"/>
<defs>
<linearGradient id="paint0_linear_752_750" x1="9.12" y1="48.0001" x2="86.88" y2="48.0001" gradientUnits="userSpaceOnUse">
<stop stop-color="white" stop-opacity="0"/>
<stop offset="0.5" stop-color="white"/>
<stop offset="1" stop-color="white" stop-opacity="0"/>
</linearGradient>
<linearGradient id="paint1_linear_752_750" x1="0" y1="48" x2="96" y2="48" gradientUnits="userSpaceOnUse">
<stop stop-color="white" stop-opacity="0"/>
<stop offset="0.5" stop-color="white"/>
<stop offset="1" stop-color="white" stop-opacity="0"/>
</linearGradient>
<linearGradient id="paint2_linear_752_750" x1="48" y1="19.2002" x2="48" y2="108.686" gradientUnits="userSpaceOnUse">
<stop stop-color="#FF6E07"/>
<stop offset="1" stop-color="#FFCBA6"/>
</linearGradient>
<linearGradient id="paint3_linear_752_750" x1="19.2" y1="48.0002" x2="76.8" y2="48.0002" gradientUnits="userSpaceOnUse">
<stop stop-color="white" stop-opacity="0"/>
<stop offset="0.5" stop-color="white"/>
<stop offset="1" stop-color="white" stop-opacity="0"/>
</linearGradient>
</defs>
</svg>
