<svg width="169" height="59" viewBox="0 0 169 59" fill="none" xmlns="http://www.w3.org/2000/svg">
<path d="M36.1436 8.61166H36.2261V31.5521H3.13574V8.69418L3.46582 8.85922L11.7178 17.1112L12.2954 16.6161L13.7808 15.1307L14.4409 14.5531L19.5571 9.43686L19.8872 9.35434L27.5615 17.0287L27.8916 16.8636L36.1436 8.61166Z" fill="white"/>
<path d="M112.804 8.28159H114.867L116.6 8.52914L118.416 9.02426L119.736 9.6019L121.056 10.3446L122.129 11.1698L123.119 12.0775L123.862 12.9852L124.687 14.223L125.43 15.7909L125.925 17.4413L126.172 18.8441V21.5672L125.842 23.2176L125.347 24.703L124.439 26.4359L123.614 27.5912L122.624 28.6639L121.799 29.4066L120.313 30.3968L118.993 31.057L117.26 31.6346L115.857 31.8822L115.032 31.9647H112.722L110.741 31.7171L109.173 31.3045L107.605 30.6444L106.368 29.9017L105.542 29.2415L104.552 28.3338L103.645 27.2611L102.819 26.0233L102.159 24.7855L101.664 23.4652L101.334 21.9798L101.251 21.2372V19.5042L101.499 17.8539L101.994 16.1209L102.737 14.388L103.645 12.9027L104.387 12.0775L104.965 11.4173L105.873 10.6747L107.028 9.93198L108.348 9.27182L109.916 8.7767L111.979 8.36411L112.804 8.28159Z" fill="white"/>
<path d="M128.73 8.94174H134.507L135.415 9.93198L136.24 11.0047L139.871 15.6258L140.531 16.451L141.686 17.9364L142.594 19.0916L143.584 20.3294L144.409 21.4022L145.152 22.3099L145.317 22.3924L145.234 21.4847V11.0872L145.317 9.02426H151.011V31.3871H146.225L145.317 31.3045L144.739 30.7269L143.667 29.3241L142.594 28.0038L141.769 26.931L140.778 25.6932L139.953 24.6205L138.963 23.3827L138.138 22.3099L137.065 20.9896L136.322 19.9994L135.415 18.8441L134.672 17.9364L134.589 31.222L134.507 31.3045H128.73V8.94174Z" fill="white"/>
<path d="M66.7583 8.94174H76.7432L78.2285 9.1893L79.2188 9.51938L80.4565 10.1795L81.4468 11.0872L82.1895 12.0775L82.8496 13.3978L83.1797 14.7181V16.8636L82.8496 18.1014L82.272 19.2567L81.3643 20.412L80.374 21.2372L78.9712 21.9798L78.3936 22.1449L78.8887 22.8875L80.0439 24.3729L80.8691 25.4456L81.8594 26.766L83.0146 28.2513L84.2524 29.9017L85.0776 30.9745L85.2427 31.3871H78.0635L77.4858 30.6444L76.7432 29.4066L75.4229 27.3436L74.02 25.1981L73.1123 23.7953L72.6172 23.0526L72.5347 31.3045H66.7583V8.94174Z" fill="white"/>
<path d="M57.1035 8.94174H64.3652L64.0352 9.43686L62.9624 10.6747L62.3022 11.4998L61.312 12.6551L60.5693 13.5628L59.5791 14.7181L58.6714 15.8734L57.9287 16.6986L57.186 17.6063L56.2783 18.679L55.6182 19.5042L55.9482 19.9994L56.9385 21.1546L57.6812 22.0623L58.7539 23.3827L59.6616 24.4554L60.3218 25.2806L61.0645 26.1883L61.9722 27.2611L62.6323 28.0863L63.375 28.994L64.5303 30.3968L65.1904 31.222V31.3871H58.8364L57.6812 31.3045L56.9385 30.4793L56.1133 29.4066L55.0405 28.0863L54.2979 27.096L53.3076 25.8582L52.4824 24.7855L51.5747 23.6302L50.4194 22.1449L50.2544 21.8148H50.0894V31.3045H44.313V9.02426H50.0894L50.1719 17.9364L51.2446 16.6161L52.4824 14.9657L53.4727 13.7279L54.4629 12.4076L55.6182 10.9222L56.3608 9.93198L57.1035 8.94174Z" fill="white"/>
<path d="M46.2935 35.0179L49.0166 35.1004L49.6768 35.7606L50.502 36.8333L51.4097 37.9886L52.3999 39.2264L53.2251 40.2992L54.2979 41.6195L55.0405 42.6097L56.0308 43.8475L57.1035 45.2503L57.6812 45.9105L57.7637 35.1004H62.4673V53.2547L61.0645 53.3372H59.5791L57.7637 53.2547L56.856 52.182L55.0405 49.8714L53.8853 48.3861L52.8125 47.0658L51.8223 45.7455L50.7495 44.4251L49.9243 43.3524L49.1816 42.4447L49.0991 53.2547H44.3955L44.313 53.1722V35.1004L46.2935 35.0179Z" fill="white"/>
<path d="M23.2705 35.1004H27.314L27.9741 35.183L28.7168 36.0081L29.7896 37.411L30.8623 38.7313L31.6875 39.804L32.7603 41.1244L33.7505 42.4447L34.8232 43.765L35.6484 44.8377L36.5562 45.993L36.6387 35.183H41.3423V53.3372H36.7212L35.896 52.4295L35.0708 51.3568L33.998 50.0365L33.0078 48.7162L31.8525 47.3133L31.1099 46.3231L30.2021 45.1678L29.2119 43.93L28.3867 42.8573L27.9741 42.4447V53.2547H23.188V35.183L23.2705 35.1004Z" fill="white"/>
<path d="M84.0049 35.1004H87.9658L88.7085 35.183L89.6987 36.3382L90.5239 37.411L92.3394 39.7215L93.3296 40.9593L94.4023 42.3622L95.5576 43.765L96.3003 44.7552L97.2905 45.993L97.373 35.183H102.077V53.3372H97.4556L96.8779 52.7596L95.8052 51.3568L94.7324 50.0365L93.6597 48.6336L92.5869 47.3133L91.5142 45.9105L90.4414 44.5902L89.6162 43.5174L88.8735 42.6097V42.4447H88.7085V53.2547H83.9224V35.183L84.0049 35.1004Z" fill="white"/>
<path d="M86.6455 8.94174H99.1885L99.271 9.02426V13.8929H92.5044V17.6063H98.8584L98.9409 17.6888V22.4749L92.5869 22.5575L92.5044 26.3534H99.271V31.3045H86.6455V8.94174Z" fill="white"/>
<path d="M70.6367 35.0179H75.7529L76.083 35.6781L77.6509 39.804L79.2188 43.8475L80.7866 47.9735L82.7671 53.2547V53.3372H77.7334L77.3208 52.347L76.5781 50.3665V50.2015L69.894 50.284L68.8213 53.1722L68.7388 53.3372H63.7876L63.8701 52.7596L65.603 48.1385L67.7485 42.4447L68.9038 39.3914L70.1416 36.0907L70.5542 35.1004L70.6367 35.0179Z" fill="white"/>
<path d="M133.104 35.1004H138.303L138.715 36.0907L140.118 39.7215L141.356 42.9398L143.997 49.8714L145.234 53.1722V53.3372H140.201L139.541 51.6869L139.128 50.5316V50.284H132.361L132.114 51.1092L131.289 53.3372H126.255L126.502 52.5121L128.318 47.6434L130.463 41.9496L131.784 38.4837L132.939 35.4305L133.104 35.1004Z" fill="white"/>
<path d="M113.382 34.5228H114.785L116.353 34.7704L117.59 35.183L118.333 35.513V41.0418L117.59 40.5467L116.683 39.9691L115.527 39.474L114.785 39.3089H113.299L112.227 39.639L111.236 40.2166L110.494 40.9593L109.999 41.7845L109.586 42.8573L109.503 43.2699V45.0853L109.833 46.2406L110.329 47.1483L111.071 47.9735L111.731 48.4686L112.557 48.8812L113.217 49.0462H114.702L115.94 48.7162L117.26 48.056L118.168 47.4784L118.333 47.3958V52.9247L117.508 53.2547L115.445 53.7498L114.785 53.8324H112.887L111.484 53.5848L110.246 53.1722L109.008 52.5121L108.018 51.7694L106.45 50.2015L105.708 49.1288L104.965 47.7259L104.552 46.4881L104.305 44.7552V43.8475L104.552 42.1146L104.965 40.7943L105.542 39.474L106.12 38.5663L106.863 37.6585L107.688 36.8333L108.843 36.0081L110.246 35.2655L111.484 34.8529L112.639 34.6053L113.382 34.5228Z" fill="white"/>
<path d="M3.71338 10.0145L4.29102 10.5096L17.7417 23.9603L18.4019 24.5379L19.062 25.1981L19.5571 25.7757L19.8047 25.8582L19.9697 25.5282L20.3823 25.1981L35.5659 10.0145H35.6484V30.4793L35.0708 29.9842L34.3281 29.2415L33.668 28.6639L28.1392 23.1351L28.6343 22.5575L28.9644 22.1449L29.2944 22.2274L29.9546 22.8875L30.6147 23.4652L31.8525 24.703L32.5127 25.2806L33.7505 26.5184L34.2456 26.931V13.3153L19.7222 27.8387L19.1445 27.3436L5.19873 13.3978L5.11621 27.0135L5.77637 26.4359L10.2324 21.9798L10.8101 22.4749L11.3052 23.0526L3.7959 30.5619H3.71338V10.0145Z" fill="black"/>
<path d="M3.30078 35.1004H13.6157V39.0614H8.08691V42.1146H13.1206V46.1581H8.00439V53.2547H3.30078V35.1004Z" fill="white"/>
<path d="M112.887 13.9754H114.537L115.94 14.3055L117.26 14.9657L118.085 15.6258L118.746 16.286L119.488 17.4413L119.901 18.514L120.066 19.3392V20.9071L119.736 22.2274L119.076 23.5477L118.168 24.5379L117.425 25.1981L116.435 25.7757L115.197 26.1883L114.785 26.2708H112.722L111.484 25.9408L110.329 25.3631L109.586 24.7855L108.678 23.8778L108.018 22.805L107.605 21.5672L107.44 20.4945V19.7518L107.688 18.349L108.101 17.3587L108.596 16.5335L109.338 15.7083L110.081 15.0482L111.319 14.388L112.392 14.058L112.887 13.9754Z" fill="black"/>
<path d="M146.555 35.1004H151.176V49.2938H157.282V53.2547H146.472V35.183L146.555 35.1004Z" fill="white"/>
<path d="M15.8438 35.1004H20.5474V53.3372H15.8438V35.1004Z" fill="white"/>
<path d="M33.668 14.6356H33.7505V25.6932L33.1729 25.1981L31.8525 23.9603L31.0273 23.1351L30.3672 22.5575L29.542 21.7323L30.0371 21.1546L30.4497 20.742L30.7798 20.9071L32.1001 22.3099L32.4302 22.64V18.1014L31.1924 19.3392L30.5322 19.9168L25.9111 24.5379L25.251 25.1156L20.7124 29.6541L20.0522 30.2318L19.8047 30.4793L19.4746 30.3143L15.4312 26.2708L14.771 25.6932L8.66455 19.5868L8.00439 19.0091L7.09668 18.1014L7.01416 22.7225L8.82959 20.9071L8.91211 20.742L9.24219 20.9071L9.81982 21.4847L9.65479 21.8148L5.77637 25.6932H5.69385V14.7181L6.02393 14.8831L6.68408 15.5433L7.26172 16.2035L8.08691 17.0287L8.74707 17.6063L9.90234 18.8441L10.48 19.4217L11.1401 19.9994L11.7178 20.577L12.2954 21.2372L13.1206 21.9798L19.6396 28.4989L19.9697 28.3338L33.668 14.6356Z" fill="black"/>
<path d="M120.479 35.1004H125.1V53.2547H120.479V35.1004Z" fill="white"/>
<path d="M19.7222 10.097L20.2998 10.5921L27.2314 17.5238L26.7363 18.1014L26.2412 18.514L23.9307 16.2035L23.2705 15.6258L19.8047 12.16L19.4746 12.325L15.4312 16.3685L14.771 16.9461L13.2031 18.514L12.873 18.349L12.2129 17.6888L12.3779 17.3587L15.4312 14.3055L16.0913 13.7279L19.7222 10.097Z" fill="black"/>
<path d="M5.77637 29.2415H17.6592L19.3096 30.8919V30.9745H4.2085L4.29102 30.7269L4.86865 30.2318L5.44629 29.5716L5.77637 29.2415Z" fill="black"/>
<path d="M21.7852 29.2415H33.5854L35.2358 30.8919V30.9745H20.1348L20.6299 30.3968L21.7852 29.2415Z" fill="black"/>
<path d="M73.0298 13.3978L74.5151 13.4803L75.5054 13.7279L76.248 14.1405L76.8257 14.8006L77.0732 15.3783L77.1558 16.451L76.9907 17.1937L76.4956 18.0189L75.7529 18.514L74.7627 18.8441L74.1025 18.9266H72.6172L72.5347 18.8441V13.4803L73.0298 13.3978Z" fill="black"/>
<path d="M19.6396 12.9027L19.9697 13.0677L22.1152 15.2132L22.7754 15.7909L25.8286 18.8441L25.6636 19.1742L25.0034 19.8343L24.6733 19.6693L19.8047 14.8006L19.4746 14.9657L15.5137 18.9266L14.8535 19.5042L14.5234 19.8343L14.1934 19.6693L13.5332 19.0091V18.8441L14.1934 18.2664L16.1738 16.286L16.834 15.7083L17.2466 15.2132L17.9067 14.6356L19.6396 12.9027Z" fill="black"/>
<path d="M161.078 4.65073H162.233L162.976 6.54868V6.79623H163.141L163.389 5.97104L163.966 4.65073H165.122L165.699 8.44662V8.85922H164.626L164.379 7.20883L164.296 6.54868L163.306 8.85922L163.141 8.94174L162.811 8.85922L161.903 6.6312L161.656 7.95151L161.491 8.85922L161.326 8.94174L160.418 8.85922L160.5 7.95151L161.078 4.65073Z" fill="white"/>
<path d="M7.83936 27.2611H15.6787L16.999 28.5814V28.6639H6.51904L6.60156 28.4164L7.26172 27.8387L7.83936 27.2611Z" fill="black"/>
<path d="M23.8481 27.2611H31.5225L32.1826 27.8387L32.9253 28.5814V28.6639H22.4453L22.8579 28.2513L23.8481 27.2611Z" fill="black"/>
<path d="M73.1123 40.6292H73.2773L74.6802 44.5902L75.2578 46.2406V46.4881H71.1318L71.3794 45.6629L72.9473 41.1244L73.1123 40.6292Z" fill="black"/>
<path d="M135.662 40.6292L135.827 40.7118L137.478 45.4979L137.808 46.4881H133.682L133.764 46.0755L135.415 41.2894L135.662 40.6292Z" fill="black"/>
<path d="M11.6353 23.4652L11.9653 23.6302L13.1206 24.7855L13.7808 25.3631L15.0186 26.6009V26.766H8.49951L8.66455 26.4359L11.6353 23.4652Z" fill="black"/>
<path d="M27.644 23.5477L27.9741 23.7127L28.9644 24.703L29.6245 25.2806L30.9448 26.6009V26.766H24.5083L24.6733 26.4359L27.3965 23.7127L27.644 23.5477Z" fill="black"/>
<path d="M19.9697 15.7909L20.5474 16.286L21.3726 17.1112V23.4652L20.0522 24.7855H19.9697V15.7909Z" fill="black"/>
<path d="M19.3096 15.7909H19.3921V24.7855L18.8145 24.2904L17.9893 23.4652V17.1112L19.3096 15.7909Z" fill="black"/>
<path d="M21.9502 17.7713L22.5278 18.2664L24.3433 20.0819L24.5083 20.1644L24.3433 20.4945L22.0327 22.805H21.9502V17.7713Z" fill="black"/>
<path d="M17.3291 17.7713H17.4116V22.805L16.834 22.3099L14.8535 20.3294L15.3486 19.7518L17.3291 17.7713Z" fill="black"/>
<path d="M157.282 4.65073H160.253V5.55844H159.345V8.85922L159.18 8.94174L158.19 8.85922V5.55844H157.282V4.65073Z" fill="white"/>
<path d="M7.5918 19.4217H7.75684V19.5868L8.08691 19.7518L8.58203 20.2469L8.41699 20.577L7.67432 21.3197H7.5918V19.4217Z" fill="black"/>
<path d="M31.8525 19.3392H31.9351V21.3197L31.3574 20.8246L30.9448 20.2469L31.8525 19.3392Z" fill="black"/>
</svg>
