<svg width="132" height="99" viewBox="0 0 132 99" fill="none" xmlns="http://www.w3.org/2000/svg">
<g filter="url(#filter0_d_14_565)">
<path d="M66.0201 26.7881L69.8667 23.4285C70.9371 22.4936 72.3509 22.1128 73.7458 22.3834L84.1988 24.4107C85.2567 24.6159 86.1259 25.3362 86.5241 26.3374C86.9222 27.3387 86.785 28.4592 86.1572 29.3348L83.4078 33.1688C78.5121 29.8943 72.562 27.7151 66.0201 26.7881ZM83.6623 59.6022L86.485 63.3827C87.1296 64.2461 87.2883 65.3637 86.9095 66.3723C86.7556 66.7839 86.5172 67.1587 86.2097 67.4727C85.7774 67.9127 85.2251 68.2155 84.6217 68.3435L74.2096 70.572C72.8202 70.8694 71.3992 70.5157 70.3113 69.6017L66.4006 66.3167C72.9237 65.264 78.8306 62.9706 83.6623 59.6022ZM82.5833 56.0875C82.4699 56.203 82.3464 56.3099 82.2133 56.4069C80.2258 57.8541 78.1015 59.0443 75.902 60.0099L75.641 32.9109C77.8586 33.8339 80.0054 34.9829 82.0206 36.3917C82.8149 36.947 83.2855 37.8578 83.2949 38.8268L83.4406 53.9476C83.4482 54.7521 83.1373 55.5227 82.5833 56.0875ZM45.8848 61.8614C36.1292 58.8605 29.1683 52.2757 26.1324 48.9544C25.0921 47.8164 25.0754 46.0807 26.0936 44.9228C26.6613 44.278 27.2464 43.6487 27.8483 43.0358C31.3666 39.4491 37.4767 34.3068 45.5939 31.6378C52.0447 29.5166 62.4871 28.6809 72.1995 31.6716C72.1916 31.7411 72.1865 31.8115 72.1872 31.8833L72.4686 61.104C72.4693 61.1757 72.4757 61.2459 72.4849 61.3152C62.8319 64.4923 52.3754 63.8579 45.8848 61.8614ZM50.0977 38.0976C45.3508 38.1433 41.5257 42.0423 41.5715 46.7897C41.5935 49.0893 42.51 51.2426 44.1517 52.853C45.7934 54.4634 47.964 55.3382 50.2636 55.316C52.6368 55.2931 54.7802 54.3066 56.324 52.733C57.8683 51.1589 58.8127 48.9978 58.7899 46.6239C58.7678 44.3243 57.8514 42.1709 56.2097 40.5605C54.568 38.9501 52.3973 38.0754 50.0977 38.0976Z" fill="url(#paint0_linear_14_565)"/>
<path d="M55.3461 46.657C55.3735 49.5052 53.0786 51.845 50.2303 51.8723C48.8505 51.8855 47.5482 51.3608 46.5631 50.3945C45.5781 49.4283 45.0283 48.1363 45.015 46.7566C45.0012 45.3325 45.5682 44.0355 46.4946 43.0911C47.4209 42.1468 48.7067 41.555 50.1308 41.5413C51.5105 41.5281 52.8129 42.0527 53.798 43.019C54.783 43.9852 55.3328 45.2773 55.3461 46.657ZM98.5061 40.1726C98.1975 40.4872 97.7689 40.6841 97.2935 40.6886L89.3433 40.7651C88.3923 40.7743 87.614 40.0109 87.6049 39.0599C87.5956 38.109 88.3592 37.3306 89.3101 37.3215L97.2603 37.2449C98.2113 37.2357 98.9895 37.9992 98.9987 38.9502C99.0012 39.1763 98.9589 39.4007 98.8744 39.6105C98.7899 39.8203 98.6647 40.0114 98.5061 40.1726ZM87.6751 46.3457C87.6658 45.3949 88.4293 44.6165 89.3803 44.6073L104.665 44.4601C105.616 44.451 106.394 45.2144 106.404 46.1654C106.408 46.6409 106.22 47.0732 105.911 47.3878C105.602 47.7024 105.174 47.8993 104.698 47.9037L89.4135 48.0509C88.4625 48.0602 87.6842 47.2967 87.6751 46.3457ZM89.4505 51.8931L97.4006 51.8166C98.3516 51.8075 99.1299 52.5709 99.139 53.5219C99.1436 53.9974 98.9551 54.4297 98.6465 54.7443C98.338 55.0588 97.9094 55.2558 97.4339 55.2602L89.4837 55.3368C88.5327 55.3459 87.7545 54.5825 87.7453 53.6315C87.7361 52.6806 88.4996 51.9023 89.4505 51.8931Z" fill="url(#paint1_linear_14_565)"/>
</g>
<defs>
<filter id="filter0_d_14_565" x="0.680456" y="0.925701" width="130.384" height="97.6979" filterUnits="userSpaceOnUse" color-interpolation-filters="sRGB">
<feFlood flood-opacity="0" result="BackgroundImageFix"/>
<feColorMatrix in="SourceAlpha" type="matrix" values="0 0 0 0 0 0 0 0 0 0 0 0 0 0 0 0 0 0 127 0" result="hardAlpha"/>
<feOffset dy="3.28806"/>
<feGaussianBlur stdDeviation="12.3302"/>
<feComposite in2="hardAlpha" operator="out"/>
<feColorMatrix type="matrix" values="0 0 0 0 1 0 0 0 0 0.415 0 0 0 0 0 0 0 0 0.3 0"/>
<feBlend mode="normal" in2="BackgroundImageFix" result="effect1_dropShadow_14_565"/>
<feBlend mode="normal" in="SourceGraphic" in2="effect1_dropShadow_14_565" result="shape"/>
</filter>
<linearGradient id="paint0_linear_14_565" x1="44.5792" y1="25.9795" x2="86.5381" y2="67.1379" gradientUnits="userSpaceOnUse">
<stop stop-color="#FF6A00"/>
<stop offset="1" stop-color="#FFD6B9"/>
</linearGradient>
<linearGradient id="paint1_linear_14_565" x1="44.5792" y1="25.9795" x2="86.5381" y2="67.1379" gradientUnits="userSpaceOnUse">
<stop stop-color="#FF6A00"/>
<stop offset="1" stop-color="#FFD6B9"/>
</linearGradient>
</defs>
</svg>
