<svg width="25" height="24" viewBox="0 0 25 24" fill="none" xmlns="http://www.w3.org/2000/svg">
<path d="M20.9159 3.51473C18.6494 1.24819 15.636 0 12.4307 0C9.22535 0 6.21185 1.24819 3.9454 3.51469C1.67885 5.78119 0.430664 8.79469 0.430664 12C0.430664 15.2053 1.67885 18.2188 3.9454 20.4853C6.21185 22.7518 9.22535 24 12.4307 24C15.636 24 18.6494 22.7518 20.916 20.4852C23.1824 18.2188 24.4307 15.2053 24.4307 12C24.4307 8.79464 23.1824 5.78119 20.9159 3.51473ZM4.94079 4.51013C5.99599 3.45492 7.23476 2.65008 8.58494 2.12475C8.22532 2.57372 7.8888 3.08977 7.58041 3.67017C7.22224 4.34423 6.9132 5.08453 6.6558 5.87527C5.76415 5.72728 4.93798 5.54531 4.19988 5.33175C4.43265 5.0454 4.67995 4.77116 4.94079 4.51013ZM3.34765 6.54305C4.21095 6.81947 5.19823 7.05258 6.27551 7.23722C5.97551 8.51062 5.79893 9.88092 5.75679 11.2962H1.86204C1.97266 9.59775 2.48276 7.97681 3.34765 6.54305ZM3.27101 17.3268C2.4528 15.9253 1.96934 14.3511 1.86199 12.7038H5.75946C5.80549 14.0786 5.97855 15.41 6.26843 16.65C5.16902 16.8283 4.15695 17.0555 3.27101 17.3268ZM4.94079 19.4899C4.64411 19.1931 4.36503 18.8792 4.10496 18.5498C4.8701 18.3376 5.72548 18.158 6.64624 18.0139C6.90546 18.8156 7.21784 19.5657 7.58037 20.248C7.91646 20.8805 8.28598 21.4363 8.6824 21.9123C7.29443 21.3881 6.02135 20.5703 4.94079 19.4899ZM11.7268 22.4116C10.6577 22.1122 9.64629 21.1358 8.82354 19.5875C8.53577 19.046 8.28302 18.4552 8.06651 17.8256C9.22573 17.698 10.4592 17.6226 11.7268 17.6048V22.4116ZM11.7268 16.197C10.3211 16.2162 8.95099 16.3045 7.66788 16.4552C7.38485 15.2851 7.21455 14.0187 7.16782 12.7039H11.7268V16.197H11.7268ZM11.7268 11.2961H7.16515C7.20785 9.94453 7.38087 8.64277 7.67271 7.44295C8.94762 7.60233 10.3149 7.69927 11.7268 7.72702V11.2961ZM11.7268 6.31913C10.4543 6.29348 9.22352 6.21052 8.07251 6.07514C8.28771 5.45208 8.53849 4.86727 8.82354 4.33069C9.64624 2.78231 10.6577 1.806 11.7268 1.50652V6.31913ZM21.558 6.61781C22.3959 8.03311 22.8905 9.62714 22.9994 11.2961H19.1046C19.063 9.89719 18.8898 8.54227 18.596 7.28142C19.6804 7.1063 20.6799 6.8835 21.558 6.61781ZM19.9205 4.51013C20.2009 4.79079 20.4656 5.08671 20.7133 5.39653C19.9599 5.60227 19.1209 5.77688 18.2194 5.91741C17.9593 5.11078 17.6455 4.35623 17.281 3.67017C16.9726 3.08977 16.6361 2.57372 16.2764 2.12475C17.6265 2.65008 18.8653 3.45492 19.9205 4.51013ZM13.1345 12.7039H17.6936C17.6465 14.0289 17.4739 15.305 17.1868 16.4826C15.9121 16.3241 14.5455 16.228 13.1345 16.201V12.7039ZM13.1345 11.2961V7.7317C14.541 7.71323 15.9122 7.62572 17.1965 7.47558C17.4836 8.66634 17.6539 9.95677 17.6962 11.2961H13.1345ZM13.1344 1.50652H13.1345C14.2036 1.806 15.215 2.78231 16.0377 4.33069C16.3273 4.8757 16.5815 5.47059 16.799 6.10481C15.6382 6.23194 14.4033 6.3068 13.1344 6.32391V1.50652ZM13.1345 22.4116V17.6089C14.4058 17.6339 15.6356 17.7161 16.7862 17.8506C16.5716 18.4709 16.3217 19.0531 16.0378 19.5875C15.215 21.1358 14.2037 22.1122 13.1345 22.4116ZM19.9205 19.4899C18.84 20.5704 17.5669 21.3881 16.1789 21.9123C16.5753 21.4362 16.9448 20.8805 17.2809 20.248C17.6381 19.5758 17.9464 18.8377 18.2034 18.0493C19.1158 18.1999 19.96 18.3862 20.7119 18.6052C20.4645 18.9144 20.2003 19.2097 19.9205 19.4899ZM21.5528 17.391C20.6793 17.1102 19.6778 16.8739 18.5844 16.6875C18.8795 15.4368 19.0554 14.0925 19.102 12.7039H22.9994C22.8903 14.3763 22.3939 15.9735 21.5528 17.391Z" fill="white"/>
</svg>
